<svg width="189" height="96" viewBox="0 0 189 96" fill="none" xmlns="http://www.w3.org/2000/svg">
<path d="M61.7422 36.9649C63.4477 32.1885 67.9717 29 73.0435 29H165.693C170.869 29 175.462 32.3191 177.087 37.2339L185.862 63.7809C187.188 67.7928 186.306 72.2066 183.541 75.4012L177.954 81.8542C175.675 84.4871 172.364 86 168.882 86H71.5064C67.2235 86 63.2652 83.7173 61.12 80.0103L54.7839 69.0608C53.0181 66.0093 52.6835 62.3357 53.869 59.0154L61.7422 36.9649Z" fill="#FF6500"/>
<ellipse cx="80" cy="87" rx="8" ry="9" fill="#0D1725"/>
<ellipse cx="103.5" cy="86" rx="8.5" ry="9" fill="#0D1725"/>
<ellipse cx="131" cy="86" rx="8" ry="9" fill="#0D1725"/>
<ellipse cx="154.5" cy="87" rx="8.5" ry="9" fill="#0D1725"/>
<rect x="83" y="37" width="21" height="20" rx="2" fill="#A9A6A6"/>
<rect x="123" y="37" width="21" height="20" rx="2" fill="#A9A6A6"/>
<path d="M0.136 11.336H14.728V14.312L10.648 14.936L17.8 36.44L19.192 41.288L20.392 36.392L27.112 14.936L23.32 14.312V11.336H34.936V14.312L31.864 14.936L20.824 47.336H15.112L3.016 14.936L0.136 14.312V11.336ZM48.2091 47.528C43.9851 47.528 40.8331 46.296 38.7531 43.832C36.7051 41.336 35.6811 37.944 35.6811 33.656C35.6811 30.776 36.2091 28.28 37.2651 26.168C38.3531 24.056 39.8731 22.44 41.8251 21.32C43.7771 20.2 46.0331 19.64 48.5931 19.64C51.7931 19.64 54.2571 20.488 55.9851 22.184C57.7131 23.848 58.6091 26.232 58.6731 29.336C58.6731 31.448 58.5451 33.016 58.2891 34.04H42.6891C42.8171 36.952 43.5051 39.224 44.7531 40.856C46.0011 42.456 47.7771 43.256 50.0811 43.256C51.3291 43.256 52.6091 43.048 53.9211 42.632C55.2651 42.216 56.3211 41.72 57.0891 41.144L58.2891 43.784C57.4251 44.712 56.0171 45.576 54.0651 46.376C52.1451 47.144 50.1931 47.528 48.2091 47.528ZM51.9531 31.16C52.0171 30.264 52.0491 29.576 52.0491 29.096C52.0491 24.84 50.6251 22.712 47.7771 22.712C46.2091 22.712 44.9931 23.336 44.1291 24.584C43.2651 25.832 42.7851 28.024 42.6891 31.16H51.9531ZM65.2878 11.912L61.7358 11.288V8.696L70.6158 7.64H70.7118L72.0078 8.552V43.736L75.5118 44.12V47H61.9277V44.12L65.2878 43.688V11.912ZM78.8163 33.704C78.8163 30.696 79.4083 28.136 80.5923 26.024C81.8083 23.912 83.4243 22.328 85.4403 21.272C87.4563 20.184 89.6483 19.64 92.0163 19.64C96.0483 19.64 99.1523 20.888 101.328 23.384C103.536 25.848 104.64 29.208 104.64 33.464C104.64 36.504 104.032 39.096 102.816 41.24C101.632 43.352 100.032 44.936 98.0163 45.992C96.0323 47.016 93.8403 47.528 91.4403 47.528C87.4403 47.528 84.3363 46.296 82.1283 43.832C79.9203 41.336 78.8163 37.96 78.8163 33.704ZM91.8243 44.408C95.4403 44.408 97.2483 40.92 97.2483 33.944C97.2483 30.296 96.8163 27.528 95.9523 25.64C95.0883 23.72 93.6803 22.76 91.7283 22.76C88.0163 22.76 86.1603 26.248 86.1603 33.224C86.1603 36.872 86.6083 39.656 87.5043 41.576C88.4323 43.464 89.8723 44.408 91.8243 44.408ZM125.036 47.528C119.596 47.528 115.436 45.912 112.556 42.68C109.676 39.416 108.236 34.968 108.236 29.336C108.236 25.624 108.988 22.392 110.492 19.64C112.028 16.856 114.124 14.712 116.78 13.208C119.436 11.704 122.444 10.952 125.804 10.952C127.212 10.952 128.572 11.048 129.884 11.24C131.196 11.4 132.748 11.624 134.54 11.912C135.884 12.136 136.62 12.248 136.748 12.248L136.22 22.136H131.804L130.316 15.272C129.964 14.92 129.356 14.632 128.492 14.408C127.628 14.184 126.524 14.072 125.18 14.072C122.46 14.072 120.268 15.336 118.604 17.864C116.972 20.36 116.156 23.992 116.156 28.76C116.156 33.368 116.94 37.128 118.508 40.04C120.076 42.952 122.364 44.408 125.372 44.408C126.812 44.408 127.916 44.28 128.684 44.024C129.484 43.736 130.156 43.336 130.7 42.824L132.812 37.88L136.844 38.264L135.884 45.704C135.212 45.768 134.54 45.896 133.868 46.088C133.228 46.248 132.828 46.344 132.668 46.376C131.388 46.728 130.188 47 129.068 47.192C127.98 47.416 126.636 47.528 125.036 47.528ZM140.07 39.512C140.07 36.6 141.526 34.408 144.438 32.936C147.382 31.464 151.174 30.712 155.814 30.68V29.576C155.814 28.264 155.67 27.24 155.382 26.504C155.126 25.768 154.63 25.224 153.894 24.872C153.19 24.488 152.15 24.296 150.773 24.296C149.206 24.296 147.798 24.504 146.55 24.92C145.302 25.304 144.006 25.816 142.662 26.456L141.174 23.384C141.654 22.968 142.454 22.472 143.574 21.896C144.726 21.32 146.086 20.824 147.654 20.408C149.222 19.96 150.838 19.736 152.502 19.736C154.966 19.736 156.886 20.056 158.262 20.696C159.67 21.336 160.678 22.36 161.286 23.768C161.894 25.176 162.198 27.064 162.198 29.432V44.12H164.79V46.808C164.15 46.968 163.238 47.128 162.054 47.288C160.87 47.448 159.83 47.528 158.934 47.528C157.846 47.528 157.11 47.368 156.726 47.048C156.374 46.728 156.198 46.072 156.198 45.08V43.784C155.334 44.744 154.214 45.608 152.838 46.376C151.462 47.144 149.91 47.528 148.182 47.528C146.71 47.528 145.35 47.224 144.102 46.616C142.886 45.976 141.91 45.064 141.174 43.88C140.438 42.664 140.07 41.208 140.07 39.512ZM151.254 43.544C151.926 43.544 152.694 43.352 153.558 42.968C154.422 42.552 155.174 42.056 155.814 41.48V33.608C152.934 33.608 150.774 34.104 149.334 35.096C147.926 36.056 147.222 37.304 147.222 38.84C147.222 40.376 147.574 41.544 148.278 42.344C149.014 43.144 150.006 43.544 151.254 43.544ZM167.785 44.168L170.953 43.784V24.872L167.881 24.008V20.696L175.321 19.688H175.465L176.665 20.648V21.704L176.521 25.592H176.665C176.889 24.952 177.417 24.168 178.249 23.24C179.081 22.28 180.121 21.448 181.369 20.744C182.649 20.008 184.025 19.64 185.497 19.64C186.201 19.64 186.809 19.736 187.321 19.928V27.128C186.361 26.456 185.193 26.12 183.817 26.12C181.481 26.12 179.449 26.744 177.721 27.992V43.736L183.289 44.168V47H167.785V44.168Z" fill="white"/>
</svg>
