<svg width="24" height="24" viewBox="0 0 24 24" fill="none" xmlns="http://www.w3.org/2000/svg">
<path d="M6.75 2.99399V5.24399M17.25 2.99399V5.24399M2.998 18.744V7.49099C2.998 6.89425 3.23505 6.32195 3.65701 5.9C4.07897 5.47804 4.65126 5.24099 5.248 5.24099H18.748C19.3447 5.24099 19.917 5.47804 20.339 5.9C20.7609 6.32195 20.998 6.89425 20.998 7.49099V18.742M20.998 18.742C20.998 19.3387 20.7609 19.911 20.339 20.333C19.917 20.7549 19.3447 20.992 18.748 20.992H5.248C4.65126 20.992 4.07897 20.7549 3.65701 20.333C3.23505 19.911 2.998 19.3387 2.998 18.742V11.242C2.998 10.6453 3.23505 10.073 3.65701 9.651C4.07897 9.22904 4.65126 8.99199 5.248 8.99199H18.748C19.3447 8.99199 19.917 9.22904 20.339 9.651C20.7609 10.073 20.998 10.6453 20.998 11.242V18.742ZM14.248 12.742H16.498M7.498 14.992H11.998M12 12.742H12.005V12.748H12V12.742ZM11.999 17.242H12.005V17.248H11.999V17.242ZM9.749 17.243H9.754V17.249H9.75V17.243H9.749ZM7.499 17.243H7.504V17.248H7.498V17.243H7.499ZM14.249 14.996H14.254V15.001H14.249V14.996ZM14.249 17.243H14.255V17.249H14.249V17.243ZM16.499 14.995H16.505V15H16.5L16.499 14.995Z" stroke="#717171" stroke-width="1.5" stroke-linecap="round" stroke-linejoin="round"/>
</svg>
