<svg width="42" height="42" viewBox="0 0 42 42" fill="none" xmlns="http://www.w3.org/2000/svg">
<path fill-rule="evenodd" clip-rule="evenodd" d="M21 3.9375C11.5762 3.9375 3.9375 11.5762 3.9375 21C3.9375 30.4237 11.5762 38.0625 21 38.0625C30.4237 38.0625 38.0625 30.4237 38.0625 21C38.0625 11.5762 30.4237 3.9375 21 3.9375ZM28.49 21.9275C28.7358 21.6814 28.8738 21.3478 28.8738 21C28.8738 20.6522 28.7358 20.3186 28.49 20.0725L23.24 14.8225C23.1198 14.6935 22.9749 14.5901 22.8139 14.5184C22.6529 14.4466 22.4791 14.4081 22.3029 14.405C22.1267 14.4019 21.9516 14.4343 21.7882 14.5003C21.6248 14.5663 21.4763 14.6646 21.3517 14.7892C21.2271 14.9138 21.1288 15.0623 21.0628 15.2257C20.9968 15.3891 20.9644 15.5642 20.9675 15.7404C20.9706 15.9166 21.0091 16.0904 21.0809 16.2514C21.1526 16.4124 21.256 16.5573 21.385 16.6775L24.395 19.6875H14.4375C14.0894 19.6875 13.7556 19.8258 13.5094 20.0719C13.2633 20.3181 13.125 20.6519 13.125 21C13.125 21.3481 13.2633 21.6819 13.5094 21.9281C13.7556 22.1742 14.0894 22.3125 14.4375 22.3125H24.395L21.385 25.3225C21.256 25.4427 21.1526 25.5876 21.0809 25.7486C21.0091 25.9096 20.9706 26.0834 20.9675 26.2596C20.9644 26.4358 20.9968 26.6109 21.0628 26.7743C21.1288 26.9377 21.2271 27.0862 21.3517 27.2108C21.4763 27.3354 21.6248 27.4337 21.7882 27.4997C21.9516 27.5657 22.1267 27.5981 22.3029 27.595C22.4791 27.5919 22.6529 27.5534 22.8139 27.4816C22.9749 27.4099 23.1198 27.3065 23.24 27.1775L28.49 21.9275Z" fill="#0B192C"/>
</svg>
