<svg width="42" height="42" viewBox="0 0 42 42" fill="none" xmlns="http://www.w3.org/2000/svg">
<path fill-rule="evenodd" clip-rule="evenodd" d="M21 3.9375C11.5762 3.9375 3.9375 11.5762 3.9375 21C3.9375 30.4237 11.5762 38.0625 21 38.0625C30.4237 38.0625 38.0625 30.4237 38.0625 21C38.0625 11.5762 30.4237 3.9375 21 3.9375ZM13.51 20.0725C13.2642 20.3186 13.1262 20.6522 13.1262 21C13.1262 21.3478 13.2642 21.6814 13.51 21.9275L18.76 27.1775C18.8802 27.3065 19.0251 27.4099 19.1861 27.4816C19.3471 27.5534 19.5209 27.5919 19.6971 27.595C19.8733 27.5981 20.0484 27.5657 20.2118 27.4997C20.3752 27.4337 20.5237 27.3354 20.6483 27.2108C20.7729 27.0862 20.8712 26.9377 20.9372 26.7743C21.0032 26.6109 21.0356 26.4358 21.0325 26.2596C21.0294 26.0834 20.9909 25.9096 20.9191 25.7486C20.8474 25.5876 20.744 25.4427 20.615 25.3225L17.605 22.3125H27.5625C27.9106 22.3125 28.2444 22.1742 28.4906 21.9281C28.7367 21.6819 28.875 21.3481 28.875 21C28.875 20.6519 28.7367 20.3181 28.4906 20.0719C28.2444 19.8258 27.9106 19.6875 27.5625 19.6875H17.605L20.615 16.6775C20.8468 16.4287 20.9731 16.0996 20.9671 15.7596C20.9611 15.4196 20.8233 15.0951 20.5828 14.8547C20.3424 14.6142 20.0179 14.4764 19.6779 14.4704C19.3379 14.4644 19.0088 14.5907 18.76 14.8225L13.51 20.0725Z" fill="#0B192C"/>
</svg>
